<svg id="visual" viewBox="0 0 900 600" width="900" height="600" xmlns="http://www.w3.org/2000/svg" xmlns:xlink="http://www.w3.org/1999/xlink" version="1.1"><rect x="0" y="0" width="900" height="600" fill="#333333"></rect><path d="M0 352L21.5 346.2C43 340.3 86 328.7 128.8 327.3C171.7 326 214.3 335 257.2 344.7C300 354.3 343 364.7 385.8 364.7C428.7 364.7 471.3 354.3 514.2 340.7C557 327 600 310 642.8 317.3C685.7 324.7 728.3 356.3 771.2 364C814 371.7 857 355.3 878.5 347.2L900 339L900 601L878.5 601C857 601 814 601 771.2 601C728.3 601 685.7 601 642.8 601C600 601 557 601 514.2 601C471.3 601 428.7 601 385.8 601C343 601 300 601 257.2 601C214.3 601 171.7 601 128.8 601C86 601 43 601 21.5 601L0 601Z" fill="#a7f3d0"></path><path d="M0 406L21.5 396.7C43 387.3 86 368.7 128.8 370C171.7 371.3 214.3 392.7 257.2 401.2C300 409.7 343 405.3 385.8 401.2C428.7 397 471.3 393 514.2 394C557 395 600 401 642.8 393.2C685.7 385.3 728.3 363.7 771.2 358.3C814 353 857 364 878.5 369.5L900 375L900 601L878.5 601C857 601 814 601 771.2 601C728.3 601 685.7 601 642.8 601C600 601 557 601 514.2 601C471.3 601 428.7 601 385.8 601C343 601 300 601 257.2 601C214.3 601 171.7 601 128.8 601C86 601 43 601 21.5 601L0 601Z" fill="#8febc2"></path><path d="M0 431L21.5 436.7C43 442.3 86 453.7 128.8 460.3C171.7 467 214.3 469 257.2 461.5C300 454 343 437 385.8 437.2C428.7 437.3 471.3 454.7 514.2 446.7C557 438.7 600 405.3 642.8 402.7C685.7 400 728.3 428 771.2 437.8C814 447.7 857 439.3 878.5 435.2L900 431L900 601L878.5 601C857 601 814 601 771.2 601C728.3 601 685.7 601 642.8 601C600 601 557 601 514.2 601C471.3 601 428.7 601 385.8 601C343 601 300 601 257.2 601C214.3 601 171.7 601 128.8 601C86 601 43 601 21.5 601L0 601Z" fill="#76e3b4"></path><path d="M0 494L21.5 484.7C43 475.3 86 456.7 128.8 456.3C171.7 456 214.3 474 257.2 481.8C300 489.7 343 487.3 385.8 479.5C428.7 471.7 471.3 458.3 514.2 456.5C557 454.7 600 464.3 642.8 473C685.7 481.7 728.3 489.3 771.2 496.8C814 504.3 857 511.7 878.5 515.3L900 519L900 601L878.5 601C857 601 814 601 771.2 601C728.3 601 685.7 601 642.8 601C600 601 557 601 514.2 601C471.3 601 428.7 601 385.8 601C343 601 300 601 257.2 601C214.3 601 171.7 601 128.8 601C86 601 43 601 21.5 601L0 601Z" fill="#5adba6"></path><path d="M0 533L21.5 527.7C43 522.3 86 511.7 128.8 513C171.7 514.3 214.3 527.7 257.2 530.8C300 534 343 527 385.8 523.7C428.7 520.3 471.3 520.7 514.2 526C557 531.3 600 541.7 642.8 548.5C685.7 555.3 728.3 558.7 771.2 557C814 555.3 857 548.7 878.5 545.3L900 542L900 601L878.5 601C857 601 814 601 771.2 601C728.3 601 685.7 601 642.8 601C600 601 557 601 514.2 601C471.3 601 428.7 601 385.8 601C343 601 300 601 257.2 601C214.3 601 171.7 601 128.8 601C86 601 43 601 21.5 601L0 601Z" fill="#34d399"></path></svg>